/vscmnt/brussel_pixiu_data/_data_brussel/112/vsc11236/PredSimResults/SUBJ06mtu3D/worker6.mot
version=1
nRows=11
nColumns=50
inDegrees=yes
endheader
                time	         pelvis_tilt	         pelvis_list	     pelvis_rotation	           pelvis_tx	           pelvis_ty	           pelvis_tz	       hip_flexion_r	     hip_adduction_r	      hip_rotation_r	        knee_angle_r	       ankle_angle_r	         mtp_angle_r	       hip_flexion_l	     hip_adduction_l	      hip_rotation_l	        knee_angle_l	       ankle_angle_l	         mtp_angle_l	    lumbar_extension	      lumbar_bending	     lumbar_rotation	 ercspn_r/activation	 intobl_r/activation	 extobl_r/activation	    abd_r/activation	    add_r/activation	hamstrings_r/activation	bifemsh_r/activation	glut_max_r/activation	iliopsoas_r/activation	rect_fem_r/activation	  vasti_r/activation	gastroc_r/activation	 soleus_r/activation	tib_ant_r/activation	 ercspn_l/activation	 intobl_l/activation	 extobl_l/activation	    abd_l/activation	    add_l/activation	hamstrings_l/activation	bifemsh_l/activation	glut_max_l/activation	iliopsoas_l/activation	rect_fem_l/activation	  vasti_l/activation	gastroc_l/activation	 soleus_l/activation	tib_ant_l/activation	
          0.00000000	         -6.46548387	         -1.21113131	          4.63467806	          0.00000000	          0.93282012	         -0.01112108	         30.27712979	         -0.21452116	         -4.42636556	         -4.68548327	          0.71665949	          0.23603075	        -11.19441805	         -0.43269380	         -3.42167389	         -8.85882097	          5.91510240	         35.09798433	         -5.47053982	         -0.09437722	         -2.43737342	          0.15673544	          0.13738335	          0.00999999	          0.00999999	          0.27080242	          0.15266260	          0.23417138	          0.03591551	          0.16155274	          0.01000001	          0.00999999	          0.02274458	          0.00999999	          0.40592457	          0.11460367	          0.00999999	          0.00999999	          0.06414176	          0.01000003	          0.01000042	          0.13492657	          0.04300880	          0.49989021	          0.02560796	          0.01000004	          0.35500774	          0.30487436	          0.02020230	
          0.01241461	         -6.55460721	         -1.13527271	          4.64406140	          0.01679814	          0.93100413	         -0.01028195	         30.48183353	         -0.13210011	         -4.24821775	         -6.64310060	          0.34491290	          0.20209210	        -11.50461034	         -0.49459640	         -3.88046172	         -9.93921713	          5.00325069	         36.90358622	         -5.13804206	          0.17055586	         -2.89172251	          0.12986505	          0.11546091	          0.00999999	          0.00999999	          0.22437664	          0.14633400	          0.19402555	          0.07225169	          0.13385648	          0.01000000	          0.00999999	          0.01884530	          0.01324029	          0.43615231	          0.11626772	          0.00999999	          0.00999999	          0.05314543	          0.01000339	          0.01556411	          0.11179504	          0.03563547	          0.49541932	          0.02121779	          0.02539955	          0.32671140	          0.28906939	          0.01673886	
          0.02482921	         -6.62461830	         -1.08213583	          4.62138312	          0.03394085	          0.92944459	         -0.00933379	         30.47584313	         -0.06447627	         -4.07300946	         -8.36757422	          0.00404238	          0.19284968	        -11.64619936	         -0.60643357	         -4.34747752	        -11.37134918	          3.95600970	         38.74616973	         -4.79217561	          0.46216047	         -3.32390580	          0.13767502	          0.09566654	          0.01000000	          0.06468851	          0.21234632	          0.13434327	          0.16076223	          0.08835182	          0.11090841	          0.00999999	          0.00999999	          0.01561450	          0.01097041	          0.53123748	          0.10409490	          0.00999999	          0.00999999	          0.04403429	          0.01000001	          0.01289648	          0.09262914	          0.02952620	          0.49285971	          0.01758026	          0.02121774	          0.29051326	          0.26769655	          0.01386919	
          0.03724382	         -6.67507024	         -1.02851247	          4.56651125	          0.05118906	          0.92825368	         -0.00826441	         30.34488332	          0.00637427	         -3.97862313	         -9.87810311	         -0.49583854	          0.16966476	        -11.53567543	         -0.75123261	         -4.82652184	        -13.27838376	          2.75933660	         40.57658054	         -4.46492958	          0.75273413	         -3.72605409	          0.14755395	          0.07926567	          0.00999999	          0.12186466	          0.26656117	          0.12421038	          0.13320149	          0.12061903	          0.09189451	          0.00999999	          0.00999999	          0.01293759	          0.00999999	          0.57780076	          0.13472112	          0.00999999	          0.00999999	          0.03648515	          0.01061993	          0.03075246	          0.07674900	          0.02446429	          0.47706573	          0.01456634	          0.01758022	          0.24070828	          0.24343693	          0.01149148	
          0.04965842	         -6.70419266	         -0.98499161	          4.48772457	          0.06836104	          0.92752663	         -0.00709408	         30.17136473	          0.09237173	         -3.92759356	        -11.38311773	         -0.76865479	          0.13339689	        -11.10738274	         -0.95002699	         -5.31785747	        -15.75040817	          1.40371436	         42.27915757	         -4.17277254	          1.05405635	         -4.09719780	          0.15521601	          0.06567653	          0.00999999	          0.17051557	          0.28899927	          0.11234961	          0.11036572	          0.18632485	          0.07614031	          0.00999999	          0.02090090	          0.01071959	          0.00999999	          0.59738658	          0.17355275	          0.00999999	          0.00999999	          0.03023021	          0.07492730	          0.02548133	          0.06359132	          0.02027019	          0.44680973	          0.01206912	          0.01456631	          0.19944177	          0.20339147	          0.00999999	
          0.06207303	         -6.71227271	         -0.95754697	          4.38786656	          0.08527831	          0.92739088	         -0.00584932	         29.99915776	          0.19811483	         -3.89623526	        -12.97221223	         -0.62391753	          0.10052812	        -10.32252590	         -1.21580691	         -5.83630507	        -18.82057275	         -0.10655467	         43.59092108	         -3.92824019	          1.37219852	         -4.43372701	          0.15665620	          0.05441709	          0.00999999	          0.19897985	          0.28955531	          0.10297860	          0.09144486	          0.20175531	          0.06308698	          0.00999999	          0.06172246	          0.00999999	          0.00999999	          0.57323713	          0.20045804	          0.00999999	          0.00999999	          0.02504761	          0.14713486	          0.03123004	          0.05268937	          0.01679511	          0.39589126	          0.01000002	          0.01206909	          0.16524990	          0.16852247	          0.00999999	
          0.07448764	         -6.70177338	         -0.94382172	          4.27143620	          0.10184352	          0.92791986	         -0.00456601	         29.78349840	          0.32681273	         -3.84844541	        -14.54703407	         -0.04507935	          0.10254795	         -9.18623601	         -1.55382941	         -6.40667937	        -22.45823265	         -1.67473533	         44.03412712	         -3.73403669	          1.70390279	         -4.73510443	          0.15139673	          0.04508794	          0.00999999	          0.21215305	          0.23991458	          0.09372256	          0.07576775	          0.18860395	          0.05227148	          0.00999999	          0.12905896	          0.00999999	          0.00999999	          0.48479528	          0.21283548	          0.00999999	          0.00999999	          0.02075350	          0.19435907	          0.02587613	          0.04365645	          0.01391579	          0.33120289	          0.01000000	          0.00999999	          0.13691980	          0.13963134	          0.00999999	
          0.08690224	         -6.67706915	         -0.93400363	          4.14015320	          0.11802501	          0.92916758	         -0.00328482	         29.42036643	          0.47611903	         -3.76199914	        -15.90640183	          0.93568129	          0.21481661	         -7.73524103	         -1.96308774	         -7.03106239	        -26.56400021	         -3.31530655	         43.35817194	         -3.58667993	          2.03852471	         -4.99892164	          0.13973821	          0.03735816	          0.00999999	          0.21566991	          0.19878414	          0.08472206	          0.06277829	          0.17168343	          0.04331017	          0.00999999	          0.16336412	          0.00999999	          0.00999999	          0.40168302	          0.22084508	          0.00999999	          0.00999999	          0.01719556	          0.19528251	          0.02144003	          0.05639569	          0.01153010	          0.27442217	          0.01000000	          0.00999999	          0.11344656	          0.11569324	          0.00999999	
          0.09931685	         -6.64241765	         -0.91446203	          3.99317667	          0.13382495	          0.93110064	         -0.00202666	         28.84727306	          0.63341007	         -3.64382866	        -16.88533917	          2.02479783	          0.43246660	         -6.03851550	         -2.43413142	         -7.70115408	        -30.92765283	         -5.21865920	         41.71624759	         -3.48120531	          2.35891317	         -5.22228877	          0.11734666	          0.03095356	          0.00999999	          0.20675069	          0.16470501	          0.07991390	          0.05201572	          0.14225041	          0.03588517	          0.00999999	          0.18055516	          0.00999999	          0.00999999	          0.33281936	          0.22241386	          0.00999999	          0.00999999	          0.01424759	          0.17649541	          0.01776443	          0.08541702	          0.00999999	          0.22737582	          0.01000000	          0.00999999	          0.09399753	          0.09585903	          0.00999999	
          0.11173145	         -6.60068587	         -0.86814132	          3.83138359	          0.14925766	          0.93358727	         -0.00079216	         28.05842960	          0.77802578	         -3.50042606	        -17.43299042	          2.99845665	          0.72242566	         -4.17316434	         -2.95157187	         -8.40956432	        -35.36550621	         -7.33125498	         39.04192470	         -3.41488210	          2.64093656	         -5.40677087	          0.09722900	          0.02564694	          0.00999999	          0.20268243	          0.13646833	          0.07713346	          0.04309826	          0.11786334	          0.02973309	          0.00999999	          0.18575347	          0.00999999	          0.00999999	          0.28575487	          0.22517564	          0.00999999	          0.01000000	          0.01180502	          0.16233678	          0.01471899	          0.10054834	          0.00999999	          0.18839500	          0.01000000	          0.00999999	          0.07788279	          0.07942517	          0.05447895	
          0.12414606	         -6.55307796	         -0.78370325	          3.65575384	          0.16433967	          0.93644480	          0.00041756	         27.08510945	          0.89322003	         -3.33131985	        -17.60200413	          3.83033120	          1.04086108	         -2.23022808	         -3.49387041	         -9.12986497	        -39.74529658	         -9.23178173	         35.05990538	         -3.38592290	          2.86732076	         -5.55440820	          0.08056027	          0.02125009	          0.00999999	          0.20107676	          0.11307249	          0.07593374	          0.03570959	          0.09928276	          0.02463571	          0.00999999	          0.17526015	          0.00999999	          0.00999999	          0.25629121	          0.22899435	          0.01000000	          0.01000001	          0.00999999	          0.13450612	          0.02542106	          0.12738255	          0.00999999	          0.15609696	          0.01000000	          0.00999999	          0.06453073	          0.06580868	          0.18620932	
